<svg width="20" height="25" viewBox="0 0 20 25" fill="none" xmlns="http://www.w3.org/2000/svg">
<g clip-path="url(#clip0_2_414)">
<path d="M16.0369 12.9834C16.0369 13.0844 15.8853 16.0658 19.1699 17.6323C18.5635 19.502 16.4412 23.6456 13.9651 23.6456C12.5502 23.6456 11.7417 22.736 10.1247 22.736C8.45715 22.736 7.54758 23.6456 6.28428 23.6456C3.85875 23.7467 1.53428 19.1988 0.877369 17.3291C0.37205 15.9142 0.169922 14.5499 0.169922 13.236C0.169922 8.73871 3.1513 6.56584 5.98109 6.51531C7.34545 6.51531 9.06354 7.47541 9.82152 7.47541C10.5289 7.47541 12.4997 6.31318 14.3188 6.46477C16.1885 6.61637 17.6034 7.32382 18.5635 8.68818C16.896 9.74935 16.0369 11.1137 16.0369 12.9834ZM13.2071 4.69616C12.1965 5.85839 10.9837 6.51531 9.66992 6.41424C9.56886 5.04988 10.0742 3.78658 10.9837 2.77594C11.7922 1.86637 13.2071 1.10839 14.4199 1.00732C14.4199 1.56318 14.5715 3.07914 13.2071 4.69616Z" fill="white"/>
</g>
<defs>
<clipPath id="clip0_2_414">
<rect width="19" height="24" fill="white" transform="translate(0.169922 0.469727)"/>
</clipPath>
</defs>
</svg>
