<svg width="17" height="17" viewBox="0 0 17 17" fill="none" xmlns="http://www.w3.org/2000/svg">
<g clip-path="url(#clip0_4002_200)">
<path d="M16.4399 8.85662C16.4399 8.4655 16.3066 8.13662 16.0399 7.86995C15.7733 7.60328 15.4444 7.46995 15.0533 7.46995H2.94661V3.14995C2.94661 2.79439 3.07105 2.49217 3.31994 2.24328C3.49772 2.06551 3.70216 1.95884 3.93327 1.92328C4.16439 1.88773 4.40439 1.90551 4.65328 1.97662C4.33327 2.47439 4.20883 3.02551 4.27994 3.62995C4.35105 4.23439 4.59994 4.74995 5.02661 5.17662L5.13328 5.33662C5.23994 5.40773 5.3555 5.44328 5.47994 5.44328C5.60439 5.44328 5.70216 5.40773 5.77327 5.33662L8.81328 2.29662C8.91994 2.18995 8.97328 2.07439 8.97328 1.94995C8.97328 1.8255 8.91994 1.70995 8.81328 1.60328L8.70661 1.49662C8.24439 1.03439 7.68439 0.785504 7.02661 0.749949C6.36883 0.714394 5.79105 0.892171 5.29327 1.28328C4.86661 1.03439 4.40439 0.936616 3.90661 0.989949C3.40883 1.04328 2.98216 1.24773 2.62661 1.60328C2.19994 2.02995 1.98661 2.5455 1.98661 3.14995V7.46995H1.82661C1.4355 7.46995 1.10661 7.60328 0.839941 7.86995C0.573275 8.13662 0.439941 8.4655 0.439941 8.85662C0.439941 9.17662 0.52883 9.45217 0.706608 9.68328C0.884386 9.91439 1.09772 10.0833 1.34661 10.1899V11.2033C1.34661 12.0566 1.57772 12.8388 2.03994 13.5499C2.50216 14.2611 3.08883 14.8122 3.79994 15.2033L3.37327 16.0566C3.30216 16.1988 3.29327 16.3233 3.34661 16.4299C3.39994 16.5366 3.47994 16.6255 3.58661 16.6966C3.69327 16.7677 3.80883 16.7766 3.93327 16.7233C4.05772 16.6699 4.1555 16.5899 4.22661 16.4833L4.70661 15.5233C5.06216 15.5944 5.4355 15.6299 5.82661 15.6299H11.0533C11.4444 15.6299 11.8177 15.5944 12.1733 15.5233L12.6533 16.4833C12.7244 16.5899 12.8222 16.6699 12.9466 16.7233C13.0711 16.7766 13.1866 16.7677 13.2933 16.6966C13.3999 16.6255 13.4799 16.5366 13.5333 16.4299C13.5866 16.3233 13.5777 16.1988 13.5066 16.0566L13.0799 15.2033C13.7911 14.8122 14.3777 14.2611 14.8399 13.5499C15.3022 12.8388 15.5333 12.0566 15.5333 11.2033V10.1899C15.7822 10.0833 15.9955 9.91439 16.1733 9.68328C16.3511 9.45217 16.4399 9.17662 16.4399 8.85662ZM7.79994 1.97662L5.50661 4.32328C5.25772 3.96773 5.15105 3.59439 5.18661 3.20328C5.22216 2.81217 5.38216 2.47439 5.66661 2.18995C5.95105 1.90551 6.29772 1.7455 6.70661 1.70995C7.1155 1.67439 7.47994 1.76328 7.79994 1.97662ZM1.82661 8.42995H15.0533C15.1599 8.42995 15.2577 8.47439 15.3466 8.56328C15.4355 8.65217 15.4799 8.75884 15.4799 8.88328C15.4799 9.00773 15.4355 9.11439 15.3466 9.20328C15.2577 9.29217 15.1599 9.33662 15.0533 9.33662H1.82661C1.71994 9.33662 1.62216 9.29217 1.53327 9.20328C1.44439 9.11439 1.39994 9.00773 1.39994 8.88328C1.39994 8.75884 1.44439 8.65217 1.53327 8.56328C1.62216 8.47439 1.71994 8.42995 1.82661 8.42995ZM14.5733 11.2033C14.5733 11.8433 14.4133 12.4299 14.0933 12.9633C13.7733 13.4966 13.3466 13.9233 12.8133 14.2433C12.2799 14.5633 11.6933 14.7233 11.0533 14.7233H5.82661C5.18661 14.7233 4.59994 14.5633 4.06661 14.2433C3.53327 13.9233 3.10661 13.4966 2.78661 12.9633C2.46661 12.4299 2.30661 11.8433 2.30661 11.2033V10.2966H14.5733V11.2033ZM7.21327 5.49662C7.21327 5.63884 7.25772 5.75439 7.34661 5.84328C7.4355 5.93217 7.54216 5.97662 7.66661 5.97662C7.79105 5.97662 7.89772 5.93217 7.98661 5.84328C8.0755 5.75439 8.11994 5.63884 8.11994 5.49662C8.11994 5.35439 8.0755 5.23884 7.98661 5.14995C7.89772 5.06106 7.79105 5.01662 7.66661 5.01662C7.54216 5.01662 7.4355 5.06106 7.34661 5.14995C7.25772 5.23884 7.21327 5.35439 7.21327 5.49662ZM8.54661 4.16328C8.54661 4.3055 8.59105 4.42106 8.67994 4.50995C8.76883 4.59884 8.8755 4.64328 8.99994 4.64328C9.12439 4.64328 9.23105 4.59884 9.31994 4.50995C9.40883 4.42106 9.45327 4.3055 9.45327 4.16328C9.45327 4.02106 9.40883 3.90551 9.31994 3.81662C9.23105 3.72773 9.12439 3.68328 8.99994 3.68328C8.8755 3.68328 8.76883 3.72773 8.67994 3.81662C8.59105 3.90551 8.54661 4.02106 8.54661 4.16328ZM8.86661 5.81662C8.86661 5.92328 8.91105 6.02995 8.99994 6.13662C9.08883 6.24328 9.1955 6.29662 9.31994 6.29662C9.44439 6.29662 9.55105 6.24328 9.63994 6.13662C9.72883 6.02995 9.77328 5.91439 9.77328 5.78995C9.77328 5.6655 9.72883 5.55884 9.63994 5.46995C9.55105 5.38106 9.44439 5.33662 9.31994 5.33662C9.1955 5.33662 9.08883 5.38106 8.99994 5.46995C8.91105 5.55884 8.86661 5.67439 8.86661 5.81662Z" fill="white"/>
</g>
<defs>
<clipPath id="clip0_4002_200">
<rect width="16" height="16" fill="white" transform="matrix(1 0 0 -1 0.439941 16.7499)"/>
</clipPath>
</defs>
</svg>
