<svg width="17" height="12" viewBox="0 0 17 12" fill="none" xmlns="http://www.w3.org/2000/svg">
<path d="M14.5066 2.76329H7.46665C7.11109 2.76329 6.77331 2.86995 6.45331 3.08329C6.3822 2.54995 6.15998 2.1144 5.78665 1.77662C5.41331 1.43884 4.97776 1.26995 4.47998 1.26995C4.08887 1.26995 3.73331 1.35884 3.41331 1.53662V0.736619C3.41331 0.594397 3.36887 0.478842 3.27998 0.389953C3.19109 0.301064 3.07554 0.256619 2.93331 0.256619H0.95998C0.817758 0.256619 0.702203 0.301064 0.613314 0.389953C0.524425 0.478842 0.47998 0.594397 0.47998 0.736619V10.7633C0.47998 10.9055 0.524425 11.0211 0.613314 11.11C0.702203 11.1988 0.817758 11.2433 0.95998 11.2433H2.93331C3.07554 11.2433 3.19109 11.1988 3.27998 11.11C3.36887 11.0211 3.41331 10.9055 3.41331 10.7633V9.21662H13.5466V10.7633C13.5466 10.9055 13.5911 11.0211 13.68 11.11C13.7689 11.1988 13.8844 11.2433 14.0266 11.2433H16C16.1422 11.2433 16.2578 11.1988 16.3466 11.11C16.4355 11.0211 16.48 10.9055 16.48 10.7633V4.73662C16.48 4.20329 16.2844 3.74106 15.8933 3.34995C15.5022 2.95884 15.04 2.76329 14.5066 2.76329ZM4.47998 2.17662C4.76442 2.17662 5.00443 2.28329 5.19998 2.49662C5.39554 2.70995 5.49331 2.95884 5.49331 3.24329C5.49331 3.52773 5.39554 3.76773 5.19998 3.96329C5.00443 4.15884 4.76442 4.25662 4.47998 4.25662C4.19554 4.25662 3.94665 4.15884 3.73331 3.96329C3.51998 3.76773 3.41331 3.52773 3.41331 3.24329C3.41331 2.95884 3.51998 2.70995 3.73331 2.49662C3.94665 2.28329 4.19554 2.17662 4.47998 2.17662ZM3.41331 4.89662C3.73331 5.10995 4.07998 5.21662 4.45331 5.21662C4.82665 5.21662 5.17331 5.10995 5.49331 4.89662V6.28329H3.41331V4.89662ZM15.52 10.2833H14.4533V8.73662C14.4533 8.62995 14.4089 8.53218 14.32 8.44329C14.2311 8.3544 14.1333 8.30995 14.0266 8.30995H2.93331C2.82665 8.30995 2.72887 8.3544 2.63998 8.44329C2.55109 8.53218 2.50665 8.62995 2.50665 8.73662V10.2833H1.43998V1.21662H2.50665V6.76329C2.50665 6.86995 2.55109 6.97662 2.63998 7.08329C2.72887 7.18995 2.82665 7.24329 2.93331 7.24329H15.52V10.2833ZM15.52 6.28329H6.45331V4.73662C6.45331 4.45217 6.55109 4.21217 6.74665 4.01662C6.9422 3.82106 7.1822 3.72329 7.46665 3.72329H14.5066C14.7911 3.72329 15.0311 3.82106 15.2266 4.01662C15.4222 4.21217 15.52 4.45217 15.52 4.73662V6.28329Z" fill="white"/>
</svg>
