<svg width="14" height="14" viewBox="0 0 14 14" fill="none" xmlns="http://www.w3.org/2000/svg">
<path d="M6.99985 3.80566C8.84555 3.80566 10.369 5.3291 10.369 7.1748C10.369 9.0498 8.84555 10.5439 6.99985 10.5439C5.12485 10.5439 3.63071 9.0498 3.63071 7.1748C3.63071 5.3291 5.12485 3.80566 6.99985 3.80566ZM6.99985 9.37207C8.20102 9.37207 9.16782 8.40527 9.16782 7.1748C9.16782 5.97363 8.20102 5.00684 6.99985 5.00684C5.76938 5.00684 4.80259 5.97363 4.80259 7.1748C4.80259 8.40527 5.79868 9.37207 6.99985 9.37207ZM11.2772 3.68848C11.2772 4.12793 10.9256 4.47949 10.4862 4.47949C10.0467 4.47949 9.69516 4.12793 9.69516 3.68848C9.69516 3.24902 10.0467 2.89746 10.4862 2.89746C10.9256 2.89746 11.2772 3.24902 11.2772 3.68848ZM13.5038 4.47949C13.5624 5.56348 13.5624 8.81543 13.5038 9.89941C13.4452 10.9541 13.2108 11.8623 12.4491 12.6533C11.6874 13.415 10.7499 13.6494 9.69516 13.708C8.61118 13.7666 5.35923 13.7666 4.27524 13.708C3.22055 13.6494 2.31235 13.415 1.52134 12.6533C0.759617 11.8623 0.525242 10.9541 0.466649 9.89941C0.408055 8.81543 0.408055 5.56348 0.466649 4.47949C0.525242 3.4248 0.759617 2.4873 1.52134 1.72559C2.31235 0.963867 3.22055 0.729492 4.27524 0.670898C5.35923 0.612305 8.61118 0.612305 9.69516 0.670898C10.7499 0.729492 11.6874 0.963867 12.4491 1.72559C13.2108 2.4873 13.4452 3.4248 13.5038 4.47949ZM12.0975 11.042C12.4491 10.1924 12.3612 8.1416 12.3612 7.1748C12.3612 6.2373 12.4491 4.18652 12.0975 3.30762C11.8631 2.75098 11.4237 2.28223 10.867 2.07715C9.98813 1.72559 7.93735 1.81348 6.99985 1.81348C6.03305 1.81348 3.98227 1.72559 3.13266 2.07715C2.54673 2.31152 2.10727 2.75098 1.8729 3.30762C1.52134 4.18652 1.60923 6.2373 1.60923 7.1748C1.60923 8.1416 1.52134 10.1924 1.8729 11.042C2.10727 11.6279 2.54673 12.0674 3.13266 12.3018C3.98227 12.6533 6.03305 12.5654 6.99985 12.5654C7.93735 12.5654 9.98813 12.6533 10.867 12.3018C11.4237 12.0674 11.8924 11.6279 12.0975 11.042Z" fill="white"/>
<a href="https://www.figma.com/design/7CXRnQMdZZn5hsK4QQ5P3R/65%2B-Real-Estate-Website-Templates-(Community)-(Copy)-(Copy)?node-id=2-2">
<rect fill="black" fill-opacity="0" x="-0.282375" y="-1.125" width="13.125" height="17.25"/>
</a>
</svg>
