<svg width="14" height="14" viewBox="0 0 14 14" fill="none" xmlns="http://www.w3.org/2000/svg">
<path d="M3.54794 13.7998H0.823332V5.04004H3.54794V13.7998ZM2.17099 3.86816C1.32138 3.86816 0.618254 3.13574 0.618254 2.25684C0.618254 1.40723 1.32138 0.704102 2.17099 0.704102C3.04989 0.704102 3.75302 1.40723 3.75302 2.25684C3.75302 3.13574 3.04989 3.86816 2.17099 3.86816ZM13.714 13.7998H11.0186V9.55176C11.0186 8.52637 10.9893 7.2373 9.5831 7.2373C8.17685 7.2373 7.97177 8.32129 7.97177 9.46387V13.7998H5.24716V5.04004H7.85458V6.24121H7.88388C8.26474 5.56738 9.14364 4.83496 10.462 4.83496C13.2159 4.83496 13.7433 6.65137 13.7433 8.99512V13.7998H13.714Z" fill="white"/>
<a href="https://www.figma.com/design/7CXRnQMdZZn5hsK4QQ5P3R/65%2B-Real-Estate-Website-Templates-(Community)-(Copy)-(Copy)?node-id=2-2">
<rect fill="black" fill-opacity="0" x="0.178312" y="-1.125" width="13.125" height="17.25"/>
</a>
</svg>
