<svg width="17" height="17" viewBox="0 0 17 17" fill="none" xmlns="http://www.w3.org/2000/svg">
<path d="M13.0835 15.0899H11.1635C11.0568 15.0899 10.9501 15.1433 10.8435 15.2499C10.7368 15.3566 10.6835 15.4721 10.6835 15.5966C10.6835 15.721 10.7368 15.8277 10.8435 15.9166C10.9501 16.0055 11.0568 16.0499 11.1635 16.0499H13.0835C13.2257 16.0499 13.3412 16.0055 13.4301 15.9166C13.519 15.8277 13.5635 15.721 13.5635 15.5966C13.5635 15.4721 13.519 15.3566 13.4301 15.2499C13.3412 15.1433 13.2257 15.0899 13.0835 15.0899ZM9.2968 15.0899H7.43014C7.28791 15.0899 7.17236 15.1433 7.08347 15.2499C6.99458 15.3566 6.95014 15.4721 6.95014 15.5966C6.95014 15.721 6.99458 15.8277 7.08347 15.9166C7.17236 16.0055 7.28791 16.0499 7.43014 16.0499H9.2968C9.43903 16.0499 9.55458 16.0055 9.64347 15.9166C9.73236 15.8277 9.7768 15.721 9.7768 15.5966C9.7768 15.4721 9.73236 15.3566 9.64347 15.2499C9.55458 15.1433 9.43903 15.0899 9.2968 15.0899ZM15.9101 6.60993C15.8035 6.60993 15.6968 6.65437 15.5901 6.74326C15.4835 6.83215 15.4301 6.9477 15.4301 7.08993V8.95659C15.4301 9.09882 15.4835 9.21437 15.5901 9.30326C15.6968 9.39215 15.8124 9.43659 15.9368 9.43659C16.0612 9.43659 16.1679 9.39215 16.2568 9.30326C16.3457 9.21437 16.3901 9.09882 16.3901 8.95659V7.08993C16.3901 6.9477 16.3457 6.83215 16.2568 6.74326C16.1679 6.65437 16.0524 6.60993 15.9101 6.60993ZM15.9101 10.3433C15.8035 10.3433 15.6968 10.3966 15.5901 10.5033C15.4835 10.6099 15.4301 10.7166 15.4301 10.8233V12.6899C15.4301 12.8321 15.4835 12.9477 15.5901 13.0366C15.6968 13.1255 15.8124 13.1699 15.9368 13.1699C16.0612 13.1699 16.1679 13.1255 16.2568 13.0366C16.3457 12.9477 16.3901 12.8321 16.3901 12.6899V10.8233C16.3901 10.7166 16.3457 10.6099 16.2568 10.5033C16.1679 10.3966 16.0524 10.3433 15.9101 10.3433ZM5.56347 15.0899H5.08347V14.6633C5.08347 14.521 5.03903 14.4055 4.95014 14.3166C4.86125 14.2277 4.74569 14.1833 4.60347 14.1833C4.46125 14.1833 4.34569 14.2277 4.2568 14.3166C4.16791 14.4055 4.12347 14.521 4.12347 14.6633V15.5699C4.12347 15.7121 4.16791 15.8277 4.2568 15.9166C4.34569 16.0055 4.46125 16.0499 4.60347 16.0499H5.56347C5.67014 16.0499 5.76791 16.0055 5.8568 15.9166C5.94569 15.8277 5.99014 15.721 5.99014 15.5966C5.99014 15.4721 5.94569 15.3566 5.8568 15.2499C5.76791 15.1433 5.67014 15.0899 5.56347 15.0899ZM15.9101 3.78326H15.0035C14.8612 3.78326 14.7457 3.8277 14.6568 3.91659C14.5679 4.00548 14.5235 4.12104 14.5235 4.26326C14.5235 4.40548 14.5679 4.52104 14.6568 4.60993C14.7457 4.69882 14.8612 4.74326 15.0035 4.74326H15.4301V5.22326C15.4301 5.32993 15.4835 5.4277 15.5901 5.51659C15.6968 5.60548 15.8124 5.64993 15.9368 5.64993C16.0612 5.64993 16.1679 5.60548 16.2568 5.51659C16.3457 5.4277 16.3901 5.32993 16.3901 5.22326V4.26326C16.3901 4.12104 16.3457 4.00548 16.2568 3.91659C16.1679 3.8277 16.0524 3.78326 15.9101 3.78326ZM15.9101 14.1833C15.8035 14.1833 15.6968 14.2277 15.5901 14.3166C15.4835 14.4055 15.4301 14.521 15.4301 14.6633V15.0899H15.0035C14.8612 15.0899 14.7457 15.1433 14.6568 15.2499C14.5679 15.3566 14.5235 15.4721 14.5235 15.5966C14.5235 15.721 14.5679 15.8277 14.6568 15.9166C14.7457 16.0055 14.8612 16.0499 15.0035 16.0499H15.9101C16.0524 16.0499 16.1679 16.0055 16.2568 15.9166C16.3457 15.8277 16.3901 15.7121 16.3901 15.5699V14.6633C16.3901 14.521 16.3457 14.4055 16.2568 14.3166C16.1679 14.2277 16.0524 14.1833 15.9101 14.1833ZM13.0835 3.78326H12.6035V0.529926C12.6035 0.387704 12.5501 0.272148 12.4435 0.18326C12.3368 0.0943708 12.2301 0.0499268 12.1235 0.0499268H0.870137C0.727915 0.0499268 0.612359 0.0943708 0.52347 0.18326C0.434581 0.272148 0.390137 0.387704 0.390137 0.529926V11.7833C0.390137 11.8899 0.434581 11.9966 0.52347 12.1033C0.612359 12.2099 0.727915 12.2633 0.870137 12.2633H4.12347V12.6899C4.12347 12.8321 4.16791 12.9477 4.2568 13.0366C4.34569 13.1255 4.46125 13.1699 4.60347 13.1699C4.74569 13.1699 4.86125 13.1255 4.95014 13.0366C5.03903 12.9477 5.08347 12.8321 5.08347 12.6899V4.74326H13.0835C13.2257 4.74326 13.3412 4.69882 13.4301 4.60993C13.519 4.52104 13.5635 4.40548 13.5635 4.26326C13.5635 4.12104 13.519 4.00548 13.4301 3.91659C13.3412 3.8277 13.2257 3.78326 13.0835 3.78326ZM11.6435 3.78326H4.60347C4.46125 3.78326 4.34569 3.8277 4.2568 3.91659C4.16791 4.00548 4.12347 4.12104 4.12347 4.26326V11.3033H1.35014V1.00993H11.6435V3.78326Z" fill="white"/>
</svg>
