<svg width="16" height="13" viewBox="0 0 16 13" fill="none" xmlns="http://www.w3.org/2000/svg">
<path d="M13.7631 3.12793C13.7631 3.27441 13.7631 3.3916 13.7631 3.53809C13.7631 7.61035 10.6869 12.2686 5.03261 12.2686C3.2748 12.2686 1.66347 11.7705 0.315814 10.8916C0.550189 10.9209 0.784564 10.9502 1.04824 10.9502C2.48378 10.9502 3.80214 10.4521 4.85683 9.63184C3.50917 9.60254 2.3666 8.72363 1.98574 7.49316C2.19081 7.52246 2.3666 7.55176 2.57167 7.55176C2.83535 7.55176 3.12831 7.49316 3.36269 7.43457C1.95644 7.1416 0.901752 5.91113 0.901752 4.41699V4.3877C1.31191 4.62207 1.80996 4.73926 2.308 4.76855C1.45839 4.21191 0.931049 3.27441 0.931049 2.21973C0.931049 1.63379 1.07753 1.10645 1.34121 0.666992C2.86464 2.5127 5.1498 3.74316 7.69863 3.88965C7.64003 3.65527 7.61074 3.4209 7.61074 3.18652C7.61074 1.4873 8.98769 0.110352 10.6869 0.110352C11.5658 0.110352 12.3568 0.461914 12.9428 1.07715C13.6166 0.930664 14.2904 0.666992 14.8764 0.31543C14.642 1.04785 14.1732 1.63379 13.5287 2.01465C14.1439 1.95605 14.7592 1.78027 15.2865 1.5459C14.8764 2.16113 14.349 2.68848 13.7631 3.12793Z" fill="white"/>
<a href="https://www.figma.com/design/7CXRnQMdZZn5hsK4QQ5P3R/65%2B-Real-Estate-Website-Templates-(Community)-(Copy)-(Copy)?node-id=2-2">
<rect fill="black" fill-opacity="0" x="-0.744" y="-1.125" width="15" height="17.25"/>
</a>
</svg>
