<svg width="50" height="51" viewBox="0 0 50 51" fill="none" xmlns="http://www.w3.org/2000/svg">
<rect y="0.589844" width="50" height="50" rx="25" fill="#222121"/>
<g clip-path="url(#clip0_2_427)">
<path d="M24.4153 19.3932L24.4146 19.3939L19.8972 23.9113C19.5459 24.2657 19.5484 24.8377 19.9028 25.189C19.9309 25.2168 19.9606 25.2427 19.992 25.2665C20.3698 25.5198 20.8751 25.4645 21.1892 25.1355L23.6918 22.6419C23.8245 22.5093 23.9358 22.3569 24.0216 22.1902L24.1661 21.9146L24.1662 30.7913C24.147 31.2459 24.4579 31.6482 24.9025 31.7445C25.395 31.8244 25.8591 31.4899 25.939 30.9973C25.9473 30.9456 25.9512 30.8933 25.9505 30.841V21.9327L26.0409 22.1269C26.1294 22.3165 26.2501 22.4892 26.3978 22.6374L28.8959 25.1355C29.21 25.4645 29.7152 25.5198 30.093 25.2665C30.4956 24.9717 30.583 24.4064 30.2882 24.0038C30.2644 23.9713 30.2384 23.9404 30.2105 23.9113L25.693 19.3939C25.3404 19.0409 24.7684 19.0405 24.4153 19.3932Z" fill="white"/>
</g>
<defs>
<clipPath id="clip0_2_427">
<rect width="11" height="13" fill="white" transform="translate(19.5 19.0898)"/>
</clipPath>
</defs>
</svg>
